<svg xmlns="http://www.w3.org/2000/svg" x="0" y="0" width="317" height="177" viewBox="0 0 317 177">
<path fill="#6BA78E" d="M7.9,103.8c0,0,16-32.5,36.9-47.3c7.4-6.8,17.6-15.3,30.7-23.6c23.6-15,49.2-23,54.1-24.5 c15.1-4.7,26.3-8.1,42.1-8.3c13.8-0.2,24.6,2.2,29.6,3.5c19,4.9,33.2,13.8,42.2,20.9c19.3,16,32.5,35.1,33.6,58c0,0.2,0,0.3,0,0.4 c0.2,5.3,1,41.8-27.5,68.3c-7.6,7.1-19.2,15.8-35.1,20.9c-46.5,15-88.3-13.9-94.3-18.2c-6.5-4.3-15.6-10.7-25.9-19.3 c-13.1-11-17.2-16.5-27-22c-6.7-3.8-16.9-8.1-31.4-9.4C26.6,103.4,17.2,103.6,7.9,103.8z"/>
<line fill="none" stroke="#EC3A7C" stroke-width="6.6387" stroke-miterlimit="10" x1="21.3" y1="109.1" x2="21.3" y2="142.3"/>
<circle fill="none" stroke="#EC3A7C" stroke-width="7.0191" stroke-miterlimit="10" cx="21.4" cy="153.4" r="8.7"/>
<circle fill="#FFFFFF" stroke="#EC3A7C" stroke-width="6.6387" stroke-miterlimit="10" cx="21.3" cy="91.2" r="18"/>
<path fill="#6BA78E" d="M269.1,29.6"/>
<circle fill="#FBC830" cx="61" cy="44.3" r="30.8"/>
<circle fill="#DC6CAF" cx="89.5" cy="141.3" r="25.6"/>
<circle fill="#267DDB" cx="63.9" cy="141.3" r="10.6"/>
<circle fill="#1E8825" cx="256.8" cy="61" r="11.1"/>
<ellipse fill="#EF562E" cx="269.8" cy="125.3" rx="47" ry="43.5"/>
<circle fill="#432541" cx="108.7" cy="65.7" r="6.4"/>
<g fill="#FFF">
<path d="M56.7,100.2c0-9.9-0.2-20.3-1.4-29.8c0-0.8,2.2-1.3,2.4,0.4l0.8,16.6c1-1.8,2-4.2,2.6-6.1 c1.1-4.6,1.2-7,1.7-9.4c0.2-0.4,0.2-1.1,0.8-1.1c1.2,0.2,1.4,0.7,1.4,1.7c0,5.1-2.2,10.2-4.5,15.6L60.1,89c6.5,4.5,8,9.8,8.8,13.7 c0.2,1.2-0.7,1.3-1.2,1.3c-2.2,0-1-9.4-9.3-13.2c0,3.6,0.6,9.8,0.1,13.2c0,0.2-0.2,0.3-0.4,0.3c-0.6,0-1.2-0.3-1.5-0.8V100.2z"/>
<path d="M79.3,72.8l1.8,25.3c0.1,0.8,0.2,1.4,0.2,2.2c0,0.7-0.7,0.9-1.4,0.9c-0.9,0-1.1-0.8-1.2-1.6l-1-18.2 c-0.2-3-0.7-6-0.6-8.9C77.1,71.4,79.2,71.8,79.3,72.8z"/>
<path d="M93.3,92c-0.6-6.6-1.9-13.3-3.2-19.7v-0.4c0-0.6,0-1.3,0.9-1.3c0.5,0,1.5,0.1,1.5,0.9 c0.2,1.5,1.3,8.5,1.6,10c0.8,4.6,1.2,9.2,1.9,13.7c0.5-1.8,2.2-9.4,2.5-10.8c0.2-1,2.6-2.4,2.9-0.8l1.7,7.8c0.4,1.7,0.6,3.5,1,4.8 c0.7-3.8,3-17.8,3.5-20.8c0.2-1.4,0-4.3,2-4.3c0.7,0,1,0.5,1,1.1c0,0.2,0,0.5,0,0.6c-1.8,9.9-3.7,19.6-4.8,29.7 c-0.2,0.5-0.6,1.1-1.2,1.1c-0.4,0-0.8-0.2-1-0.5l-3.6-15.8L97,101.1c-0.2,1.2,0,2.5-1.5,2.5c-0.6,0-0.9-0.2-1.2-0.8L93.3,92z"/>
<path d="M123.1,72.8l1.8,25.3c0.1,0.8,0.2,1.4,0.2,2.2c0,0.7-0.7,0.9-1.4,0.9c-0.9,0-1.1-0.8-1.2-1.6l-1-18.2 c-0.2-3-0.7-6-0.6-8.9C120.9,71.4,123,71.8,123.1,72.8z"/>
<path d="M135.7,73.6c-0.2-1.4-0.2-1.8-0.2-2.9c0-0.7,0.9-1.2,1.6-1.1c3.9,0.2,7.4,1.9,7.4,6.2 c0,2.9-0.2,3.2-2.4,5.2c5.4,2.4,6.9,8.2,6.9,13.7c0,4.3-3.2,7.4-7.2,8.5l-1,0.2c-1.1,0.2-1.5,0.2-2.7-0.2 C136.4,102.3,136.3,77.4,135.7,73.6z M137.8,77.6c0,0.4,0.2,2.1,0.2,2.4c0.1,0,0.6,0,0.7,0c2.1,0,3.3-1.8,3.3-3.7 c0-2.7-1.6-4.3-4.3-4.3C137.7,72.9,137.8,76.8,137.8,77.6z M138.3,84c0.3,6.2,0.8,11.5,1.1,17.4h0.2c4.6,0,6.9-3,6.9-7.3 c0-5.5-2-11.6-8.3-11.6C138.3,82.7,138.3,83.8,138.3,84z"/>
<path d="M159.9,71.2c0.2-0.2,0.7-0.5,1-0.5c1.5,0,1.4,1.6,1.4,2.7v0.2c-0.1,4.1-0.6,8.2-0.7,12.3 c-0.1,2.8-1.4,14.2,3,14.2c2,0,3.4-4,3.7-5.3c1.5-7.2,2.5-14.9,2.5-22.2v-0.9c0-0.6,0.8-0.8,1.4-0.8c0.7,0,1.3,0.6,1.3,1.2l0,0.6 c-0.4,6.4-0.9,12.3-2,18.6l-0.1,0.5c0,0.1,0,0.2-0.1,0.4c-0.5,3-1.7,9.8-6.3,9.8c-5.3,0-5.7-5.6-5.7-9.2v-0.7c0-0.2,0-5.6,0.1-7.6 C159.5,80.2,159.5,75.7,159.9,71.2z"/>
<path d="M184.1,73.6c-0.2-1.4-0.2-1.8-0.2-2.9c0-0.7,0.9-1.2,1.6-1.1c3.9,0.2,7.4,1.9,7.4,6.2 c0,2.9-0.2,3.2-2.4,5.2c5.4,2.4,6.9,8.2,6.9,13.7c0,4.3-3.2,7.4-7.2,8.5l-1,0.2c-1.1,0.2-1.5,0.2-2.7-0.2 C184.8,102.3,184.7,77.4,184.1,73.6z M186.2,77.6c0,0.4,0.2,2.1,0.2,2.4c0.1,0,0.6,0,0.7,0c2.1,0,3.3-1.8,3.3-3.7 c0-2.7-1.6-4.3-4.3-4.3C186.1,72.9,186.2,76.8,186.2,77.6z M186.7,84c0.3,6.2,0.8,11.5,1.1,17.4h0.2c4.6,0,6.9-3,6.9-7.3 c0-5.5-2-11.6-8.3-11.6C186.7,82.7,186.7,83.8,186.7,84z"/>
<path d="M205.9,73.6c-0.2-1.4-0.2-1.8-0.2-2.9c0-0.7,0.9-1.2,1.6-1.1c3.9,0.2,7.4,1.9,7.4,6.2 c0,2.9-0.2,3.2-2.4,5.2c5.4,2.4,6.9,8.2,6.9,13.7c0,4.3-3.2,7.4-7.2,8.5l-1,0.2c-1.1,0.2-1.5,0.2-2.7-0.2 C206.7,102.3,206.6,77.4,205.9,73.6z M208.1,77.6c0,0.4,0.2,2.1,0.2,2.4c0.1,0,0.6,0,0.7,0c2.1,0,3.3-1.8,3.3-3.7 c0-2.7-1.6-4.3-4.3-4.3C208,72.9,208.1,76.8,208.1,77.6z M208.6,84c0.3,6.2,0.8,11.5,1.1,17.4h0.2c4.6,0,6.9-3,6.9-7.3 c0-5.5-2-11.6-8.3-11.6C208.6,82.7,208.6,83.8,208.6,84z"/>
<path d="M228.7,70.3c0.7,0,1.2,0.8,1.4,1.4c0.3,9.4,0.3,18.8,1.1,28.2c1.2-0.3,3.3-0.9,5-0.9c0.7,0,1.4,0.2,1.4,1 c0,0.5-0.1,1-0.8,1.2c-1.4,0.5-3.3,0.4-4.7,0.8c-0.5,0.1-1.1,0.5-1.8,0.5c-0.5,0-1.2-0.6-1.3-1.1c-0.5-5-0.3-10.3-0.5-15.2 l-0.5-10.2V71C228.1,70.5,228.4,70.3,228.7,70.3z"/>
<path d="M246.5,98v-8.2c0-5.9-0.6-9.7-0.6-15.7V72c6.6-0.5,7.4-0.1,7.4,0.8c0,0.3-0.2,0.9-0.5,1h-4.5 c-0.3,0-0.3,0.2-0.3,0.3c0,4.4,0.4,7.6,0.7,12.1c0.6,0.2,4.1,0,4.8,0c1.4,0,2.4,2.4,0.5,2.4h-5.3l0.1,9.7c1,0.2,6.2-0.8,6.2,1 c0,0.5-0.2,1-0.8,1.1H254c-1.5,0.1-7.4,0.6-7.4-0.6L246.5,98z"/>
</g>
</svg>
